<svg xmlns="http://www.w3.org/2000/svg" version="1.1" xmlns:xlink="http://www.w3.org/1999/xlink" xmlns:svgjs="http://svgjs.dev/svgjs" width="1000" height="1000" viewBox="0 0 1000 1000"><rect width="1000" height="1000" fill="#ffffff"></rect><g transform="matrix(0.7,0,0,0.7,150.0000000000001,106.25)"><svg viewBox="0 0 320 360" data-background-color="#010536" preserveAspectRatio="xMidYMid meet" height="1125" width="1000" xmlns="http://www.w3.org/2000/svg" xmlns:xlink="http://www.w3.org/1999/xlink"><g id="tight-bounds" transform="matrix(1,0,0,1,0,0)"><svg viewBox="0 0 320 360" height="360" width="320"><g><svg></svg></g><g><svg viewBox="0 0 320 360" height="360" width="320"><g><path xmlns="http://www.w3.org/2000/svg" d="M20.961 227.22l3.726 4.658-1.863-6.056c-0.466-2.795-3.726 0.466-1.863 1.398M25.153 224.425c1.397 2.329 2.795 4.658 2.795 6.987 0 3.261 2.795 4.658 5.123 5.589-3.261-3.726-5.124-13.974-7.918-12.576M204.017 26.929c7.918 0 15.371-0.932 23.756 0.931 20.495 5.124 37.729 15.371 49.374 29.811l32.606 52.169c1.397 13.042 4.192 27.482 3.726 43.319 3.261 0 2.795-4.658 6.521-5.59-3.726 9.316-5.59 20.961-6.521 34.469-2.329-7.453 0-18.632 0.466-24.687-3.261 5.124-5.124 1.397-5.124-0.932 0.466-3.726-1.397-3.261-2.795-4.658-5.124-4.658-8.384-9.782-12.11-17.7 2.329-6.055 2.795-14.905-4.658-19.563-2.329-1.397-5.124-3.726-6.521-7.453-1.863-5.124-5.124-11.179-4.193-19.097 0.466-2.329-6.987 5.124-11.179 1.863-18.166-12.576-36.332-27.016-58.224-39.127-11.645 0-20.029-4.192-24.221-9.316-3.726-4.658-0.932-10.713 4.658-11.179 3.261 0 6.987-0.932 9.782 0.932 0.466-1.863 2.329-4.192 4.657-4.192M157.904 16.215l0.932 0.466c4.658 0.932 6.987 7.453 12.11 5.124 0 3.261 0.466 6.521-0.466 8.85-1.397 3.726-5.59 3.726-8.85 3.726-31.208-1.863-49.374 11.179-68.471 22.358-5.124 3.261-10.713 5.59-14.906 9.782-20.029 18.632-41.921 35.866-47.045 70.335l-4.192 38.195c-0.466 4.192-5.124 8.384-4.192 13.508l3.26 22.824c-3.261-3.261-5.124 0.932-4.192 2.795 0.466 1.397 2.329 6.055 5.124 1.863 3.726 6.987 7.453 20.495 12.576 26.55 15.837 18.632 36.332 35.4 53.101 52.169 4.192-0.932 7.453-0.932 8.384-3.727 1.397 2.795-1.397 5.59-3.726 6.056 7.453 4.658 15.837 8.85 27.016 9.781 14.44 0.932 27.948 3.261 40.524 6.522 6.521-1.863 13.042-2.795 20.029-3.261 2.329 0 3.726-3.726 6.521-4.658l0.466-4.658c2.795 4.192 2.329-1.397 0.466-4.192 3.261 2.795 4.192 5.124 5.589 6.987 0-1.397 3.726-6.521 3.727-0.466l0.931-6.055c1.397-0.932 1.863 5.124 3.261 0.931 1.397-4.192 4.192-0.932 6.987-2.329-0.932 1.863-0.466 5.59 2.794 3.261l3.727-3.261c2.329 5.59 6.055 3.261 7.918 2.329 20.495-13.042 40.99-28.413 60.553-43.784l-0.466 6.055 2.329-7.453c2.329 2.329 4.192 0.466 5.124-0.931 2.795-4.658 6.521-9.316 12.577-13.508-7.453 20.029-16.303 35.866-27.482 48.908l-4.658 5.59c0 3.261-0.932 7.453-4.658 7.918-1.863 0.466-5.59-0.932-8.384 1.863-1.397 1.863 3.261 5.59-0.466 2.795-3.261-2.329-6.521 0-10.248 0.932-2.795 0.932 1.863 3.726 2.795 5.589 0.932 1.863 1.863 3.726 1.398 6.056l-5.124-5.59c-6.055 3.261-9.782 9.316-14.906 13.974-2.329 1.863-1.397 5.124-1.397 7.918-3.261 0-6.987-0.932-8.85 0.932-1.397 1.863-0.932 4.658-0.932 7.453-4.658-0.466-5.124-7.453-9.315-6.056-4.192 0.932-8.85 1.397-12.577 3.727 2.795 5.59-4.658 2.329-3.726 3.26-6.987-4.192-13.042-7.453-20.495-4.658-15.837-5.124-35.4-2.795-49.84-0.931 0-2.329 0.466-4.658-0.466-5.124-0.932 2.329-3.726 1.397-3.26 1.397-8.85-6.055-17.7-9.782-27.016-14.905-8.384 0.932-16.303-3.261-18.632-5.59-6.521-6.055-13.974-2.795-20.029-4.192-13.042-3.261-17.7-16.769-19.098-26.084-0.932-4.658-4.658-6.521-6.055-6.056-6.055-19.563-15.371-37.263-22.824-55.429-1.863-4.658-1.397-9.316-1.397-14.44 2.329 0.932 4.658 0.466 4.192-2.794-2.329-15.371-7.918-27.016-13.974-38.195 3.261-15.837 3.726-34.469 11.179-48.443 6.521-12.576 18.632-19.098 27.016-29.811 2.795-3.726 2.795-8.85 5.59-12.11 9.316-9.316 18.632-19.098 28.879-27.482 4.658-3.726 10.247 0 17.234-1.397 2.329-8.384 11.645-15.837 20.495-13.508 3.726 0.932 11.179-8.85 13.508-9.782 3.726-1.397 1.863 3.726 1.863 6.987 8.85-6.987 20.961-10.713 32.14-14.906" fill="#000000" fill-rule="nonzero" stroke="none" stroke-width="1" stroke-linecap="butt" stroke-linejoin="miter" stroke-miterlimit="10" stroke-dasharray="" stroke-dashoffset="0" font-family="none" font-weight="none" font-size="none" text-anchor="none" style="mix-blend-mode: normal" data-fill-palette-color="tertiary"></path></g><g transform="matrix(1,0,0,1,64.00000000000001,113.73877722893667)"><svg viewBox="0 0 191.99999999999997 132.52244554212666" height="132.52244554212666" width="191.99999999999997"><g><svg viewBox="0 0 191.99999999999997 132.52244554212666" height="132.52244554212666" width="191.99999999999997"><g><svg viewBox="0 0 191.99999999999997 132.52244554212666" height="132.52244554212666" width="191.99999999999997"><g transform="matrix(1,0,0,1,0,90.52817642665609)"><svg viewBox="0 0 191.99999999999997 41.99426911547057" height="41.99426911547057" width="191.99999999999997"><g id="textblocktransform"><svg viewBox="0 0 191.99999999999997 41.99426911547057" height="41.99426911547057" width="191.99999999999997" id="textblock"><g><svg viewBox="0 0 191.99999999999997 23.80730072013906" height="23.80730072013906" width="191.99999999999997"><g transform="matrix(1,0,0,1,0,0)"><svg width="191.99999999999997" viewBox="3 -36.060001373291016 294.92999267578125 36.56999969482422" height="23.80730072013906" data-palette-color="#fbfbf8"><path d="M19.8 0L26.64 0 26.64-35.55 19.75-35.55 19.73-12.72 9.91-35.55 3-35.55 3 0 9.91 0 9.91-22.92 19.8 0ZM58.01-15.16L58.01-15.16 58.01-20.34Q58.01-22.75 57.55-24.9 57.1-27.05 56.25-28.86L56.25-28.86Q55.47-30.44 54.38-31.76 53.29-33.08 51.85-34.01L51.85-34.01Q50.41-34.99 48.62-35.51 46.82-36.04 44.77-36.04L44.77-36.04Q42.75-36.04 41.01-35.52 39.28-35.01 37.89-34.06L37.89-34.06Q36.47-33.08 35.39-31.71 34.3-30.35 33.54-28.66L33.54-28.66Q32.76-26.88 32.36-24.78 31.96-22.68 31.96-20.34L31.96-20.34 31.96-15.16Q31.96-12.96 32.31-10.99 32.66-9.01 33.35-7.32L33.35-7.32Q34.1-5.49 35.23-4.04 36.35-2.59 37.77-1.56L37.77-1.56Q39.21-0.59 40.96-0.05 42.72 0.49 44.8 0.49L44.8 0.49Q46.75 0.49 48.45 0.01 50.14-0.46 51.56-1.32L51.56-1.32Q53.12-2.29 54.34-3.76 55.56-5.22 56.39-6.98L56.39-6.98Q57.18-8.74 57.59-10.8 58.01-12.87 58.01-15.16ZM51.05-20.39L51.05-20.39 51.05-15.16Q51.05-13.84 50.91-12.62 50.78-11.4 50.51-10.38L50.51-10.38Q50.17-9.06 49.59-8.02 49.02-6.98 48.19-6.3L48.19-6.3Q47.53-5.74 46.68-5.44 45.82-5.15 44.8-5.15L44.8-5.15Q43.72-5.15 42.88-5.47 42.04-5.79 41.38-6.37L41.38-6.37Q40.67-7.03 40.15-8.09 39.62-9.16 39.35-10.45L39.35-10.45Q39.11-11.47 39.01-12.67 38.91-13.87 38.91-15.16L38.91-15.16 38.91-20.39Q38.91-21.75 39.02-23 39.13-24.24 39.38-25.29L39.38-25.29Q39.69-26.66 40.27-27.69 40.84-28.71 41.67-29.39L41.67-29.39Q42.28-29.86 43.05-30.1 43.82-30.35 44.77-30.35L44.77-30.35Q45.77-30.35 46.59-30.08 47.41-29.81 48.07-29.32L48.07-29.32Q48.9-28.66 49.51-27.62 50.12-26.59 50.49-25.27L50.49-25.27Q50.78-24.22 50.91-22.99 51.05-21.75 51.05-20.39ZM70.06-13.28L75.26-13.28 81.95 0 89.3 0 89.3-0.32 81.66-14.99Q83.12-15.65 84.31-16.55 85.49-17.46 86.35-18.68L86.35-18.68Q87.18-19.87 87.63-21.4 88.08-22.92 88.08-24.83L88.08-24.83Q88.08-27.47 87.17-29.47 86.25-31.47 84.57-32.81L84.57-32.81Q82.86-34.16 80.46-34.85 78.07-35.55 75.12-35.55L75.12-35.55 63.2-35.55 63.2 0 70.06 0 70.06-13.28ZM75.14-18.85L70.06-18.85 70.06-29.98 75.12-29.98Q76.53-29.98 77.63-29.64 78.73-29.3 79.49-28.66L79.49-28.66Q80.34-27.95 80.77-26.87 81.2-25.78 81.2-24.37L81.2-24.37Q81.2-23.19 80.87-22.24 80.54-21.29 79.9-20.61L79.9-20.61Q79.15-19.75 77.94-19.3 76.73-18.85 75.14-18.85L75.14-18.85ZM117.2-5.54L100.55-5.54 100.55-35.55 93.67-35.55 93.67 0 117.2 0 117.2-5.54ZM148.01-15.16L148.01-15.16 148.01-20.34Q148.01-22.75 147.56-24.9 147.11-27.05 146.25-28.86L146.25-28.86Q145.47-30.44 144.39-31.76 143.3-33.08 141.86-34.01L141.86-34.01Q140.42-34.99 138.63-35.51 136.83-36.04 134.78-36.04L134.78-36.04Q132.75-36.04 131.02-35.52 129.29-35.01 127.9-34.06L127.9-34.06Q126.48-33.08 125.39-31.71 124.31-30.35 123.55-28.66L123.55-28.66Q122.77-26.88 122.37-24.78 121.96-22.68 121.96-20.34L121.96-20.34 121.96-15.16Q121.96-12.96 122.32-10.99 122.67-9.01 123.35-7.32L123.35-7.32Q124.11-5.49 125.23-4.04 126.36-2.59 127.77-1.56L127.77-1.56Q129.21-0.59 130.97-0.05 132.73 0.49 134.8 0.49L134.8 0.49Q136.76 0.49 138.45 0.01 140.15-0.46 141.57-1.32L141.57-1.32Q143.13-2.29 144.35-3.76 145.57-5.22 146.4-6.98L146.4-6.98Q147.18-8.74 147.6-10.8 148.01-12.87 148.01-15.16ZM141.05-20.39L141.05-20.39 141.05-15.16Q141.05-13.84 140.92-12.62 140.79-11.4 140.52-10.38L140.52-10.38Q140.18-9.06 139.6-8.02 139.03-6.98 138.2-6.3L138.2-6.3Q137.54-5.74 136.68-5.44 135.83-5.15 134.8-5.15L134.8-5.15Q133.73-5.15 132.89-5.47 132.05-5.79 131.39-6.37L131.39-6.37Q130.68-7.03 130.15-8.09 129.63-9.16 129.36-10.45L129.36-10.45Q129.12-11.47 129.02-12.67 128.92-13.87 128.92-15.16L128.92-15.16 128.92-20.39Q128.92-21.75 129.03-23 129.14-24.24 129.38-25.29L129.38-25.29Q129.7-26.66 130.28-27.69 130.85-28.71 131.68-29.39L131.68-29.39Q132.29-29.86 133.06-30.1 133.83-30.35 134.78-30.35L134.78-30.35Q135.78-30.35 136.6-30.08 137.42-29.81 138.08-29.32L138.08-29.32Q138.91-28.66 139.52-27.62 140.13-26.59 140.49-25.27L140.49-25.27Q140.79-24.22 140.92-22.99 141.05-21.75 141.05-20.39ZM150.77-35.55L161.51 0 168.49 0 179.26-35.55 171.69-35.55 165.64-12.35 164.98-9.94 164.37-12.33 158.34-35.55 150.77-35.55ZM237.21-5.54L220.56-5.54 220.56-35.55 213.68-35.55 213.68 0 237.21 0 237.21-5.54ZM267.22-5.54L250.57-5.54 250.57-35.55 243.68-35.55 243.68 0 267.22 0 267.22-5.54ZM297.9-11.13L297.9-11.13 291.04-11.13Q290.94-9.52 290.5-8.37 290.07-7.23 289.31-6.49L289.31-6.49Q288.55-5.76 287.48-5.42 286.4-5.08 285.06-5.08L285.06-5.08Q284.06-5.08 283.24-5.31 282.42-5.54 281.76-6.03L281.76-6.03Q281.15-6.47 280.68-7.13 280.2-7.79 279.86-8.64L279.86-8.64Q279.37-9.89 279.14-11.56 278.91-13.23 278.91-15.36L278.91-15.36 278.91-20.19Q278.91-21.75 279.05-23.11 279.2-24.46 279.52-25.59L279.52-25.59Q279.93-27.03 280.63-28.11 281.33-29.2 282.33-29.79L282.33-29.79Q282.91-30.13 283.61-30.3 284.3-30.47 285.11-30.47L285.11-30.47Q286.62-30.47 287.71-30.07 288.8-29.66 289.53-28.88L289.53-28.88Q290.24-28.08 290.61-26.88 290.99-25.68 291.09-24.1L291.09-24.1 297.93-24.1Q297.68-26.88 296.75-29.1 295.83-31.32 294.22-32.86L294.22-32.86Q292.6-34.4 290.32-35.23 288.04-36.06 285.11-36.06L285.11-36.06Q283.13-36.06 281.41-35.56 279.69-35.06 278.25-34.13L278.25-34.13Q276.64-33.03 275.37-31.45 274.1-29.86 273.32-27.83L273.32-27.83Q272.63-26.17 272.29-24.23 271.95-22.29 271.95-20.14L271.95-20.14 271.95-15.36Q271.95-13.06 272.33-11.01 272.71-8.96 273.42-7.25L273.42-7.25Q274.15-5.54 275.21-4.13 276.27-2.71 277.64-1.71L277.64-1.71Q279.13-0.63 281-0.06 282.86 0.51 285.06 0.51L285.06 0.51Q287.84 0.51 290.14-0.31 292.43-1.12 294.09-2.64L294.09-2.64Q295.75-4.15 296.74-6.3 297.73-8.45 297.9-11.13Z" opacity="1" transform="matrix(1,0,0,1,0,0)" fill="#000000" class="wordmark-text-0" data-fill-palette-color="primary" id="text-0"></path></svg></g></svg></g><g transform="matrix(1,0,0,1,0,27.281357270424632)"><svg viewBox="0 0 191.99999999999997 14.71291184504594" height="14.71291184504594" width="191.99999999999997"><g transform="matrix(1,0,0,1,0,0)"><svg width="191.99999999999997" viewBox="2.450000047683716 -35.900001525878906 591.8099975585938 45.35000228881836" height="14.71291184504594" data-palette-color="#fbfbf8"><path d="M23.85-9.45L23.85-9.45Q23.85-4.95 20.63-2.27 17.4 0.4 12.15 0.4L12.15 0.4Q6.45 0.4 2.7-1.75L2.7-1.75 2.7-8.2Q7-5.1 12.1-5.1L12.1-5.1Q14.4-5.1 15.8-6.23 17.2-7.35 17.2-9.25L17.2-9.25Q17.2-10.15 16.85-10.85 16.5-11.55 15.43-12.25 14.35-12.95 13.78-13.25 13.2-13.55 11.4-14.35L11.4-14.35Q10.9-14.6 10.65-14.7L10.65-14.7Q8.8-15.55 7.65-16.23 6.5-16.9 5.15-18.05 3.8-19.2 3.13-20.8 2.45-22.4 2.45-24.45L2.45-24.45Q2.45-28.75 5.63-31.35 8.8-33.95 14.05-33.95L14.05-33.95Q18.8-33.95 22.25-32.3L22.25-32.3 22.25-26.2Q18.5-28.45 14.25-28.45L14.25-28.45Q11.9-28.45 10.58-27.4 9.25-26.35 9.25-24.7 9.25-23.05 10.68-21.98 12.1-20.9 14.95-19.6L14.95-19.6Q16.95-18.7 18.2-18.03 19.45-17.35 20.93-16.15 22.4-14.95 23.13-13.28 23.85-11.6 23.85-9.45ZM60.94-12.75L60.94-12.75Q60.94-7 57.71-3.3 54.49 0.4 48.69 0.4L48.69 0.4Q42.94 0.4 39.71-3.2 36.49-6.8 36.49-12.4L36.49-12.4Q36.49-18.2 39.84-21.98 43.19-25.75 48.69-25.75L48.69-25.75Q54.54-25.75 57.74-22.08 60.94-18.4 60.94-12.75ZM42.79-12.6L42.79-12.6Q42.79-9.1 44.34-6.75 45.89-4.4 48.74-4.4L48.74-4.4Q51.69-4.4 53.19-6.7 54.69-9 54.69-12.55L54.69-12.55Q54.69-16.2 53.24-18.53 51.79-20.85 48.69-20.85L48.69-20.85Q45.84-20.85 44.31-18.5 42.79-16.15 42.79-12.6ZM87.77-25.35L87.77-20.85 82.72-20.85 82.72 0 76.72 0 76.72-20.85 73.02-20.85 73.02-25.35 76.72-25.35 76.72-26.85Q76.72-31.1 79.07-33.5 81.42-35.9 85.57-35.9L85.57-35.9Q87.47-35.9 88.87-35.45L88.87-35.45 88.87-30.4Q87.57-30.9 86.37-30.9L86.37-30.9Q82.72-30.9 82.72-26.8L82.72-26.8 82.72-25.35 87.77-25.35ZM114.46-5.75L114.46-0.6Q112.71 0.25 109.96 0.25L109.96 0.25Q101.76 0.25 101.76-8.05L101.76-8.05 101.76-20.85 97.96-20.85 97.96-25.35 101.76-25.35 101.76-31.45 107.76-31.45 107.76-25.35 114.06-25.35 114.06-20.85 107.76-20.85 107.76-7.95Q107.76-6.35 108.61-5.53 109.46-4.7 110.96-4.7L110.96-4.7Q112.86-4.7 114.46-5.75L114.46-5.75ZM142.24-8.3L139.99 0 133.49 0 125.49-25.35 131.74-25.35 134.04-17Q135.04-13.4 135.72-10.58 136.39-7.75 136.54-6.75L136.54-6.75 136.74-5.75Q137.24-8.8 139.64-17L139.64-17 142.09-25.35 147.54-25.35 149.99-17Q151.09-13.3 151.82-10.48 152.54-7.65 152.74-6.7L152.74-6.7 152.89-5.7Q153.39-8.65 155.84-17L155.84-17 158.24-25.35 164.24-25.35 156.19 0 149.69 0 147.44-8.3Q146.54-11.55 145.89-14.23 145.24-16.9 145.04-17.9L145.04-17.9 144.84-18.95Q144.19-15.65 142.24-8.3L142.24-8.3ZM185.53-4.25L185.53-4.25Q187.53-4.25 188.65-5.43 189.78-6.6 189.78-8.5L189.78-8.5 189.78-10.9 186.68-10.9Q184.33-10.9 183.08-9.93 181.83-8.95 181.83-7.45L181.83-7.45Q181.83-4.25 185.53-4.25ZM190.03 0L190.03-3.05Q188.28 0.2 183.43 0.2L183.43 0.2Q179.83 0.2 177.7-1.9 175.58-4 175.58-7.2L175.58-7.2Q175.58-10.8 178.28-12.85 180.98-14.9 186.08-14.9L186.08-14.9 189.78-14.9 189.78-16.45Q189.78-18.55 188.68-19.65 187.58-20.75 184.93-20.75L184.93-20.75Q180.88-20.75 177.48-18.5L177.48-18.5 177.48-24.05Q180.33-25.8 185.68-25.8L185.68-25.8Q195.98-25.8 195.98-16.2L195.98-16.2 195.98 0 190.03 0ZM216.86-13.1L216.86 0 210.81 0 210.86-25.35 216.86-25.35 216.86-20.85Q218.61-25.55 223.26-25.55L223.26-25.55Q224.31-25.55 224.96-25.4L224.96-25.4 224.96-19.6Q223.81-20.1 222.41-20.1L222.41-20.1Q219.96-20.1 218.41-18.1 216.86-16.1 216.86-13.1L216.86-13.1ZM256.55-6.6L256.55-1.4Q253.9 0.25 248.9 0.25L248.9 0.25Q242.85 0.25 239.35-3.35 235.85-6.95 235.85-12.65L235.85-12.65Q235.85-18.7 239.15-22.15 242.45-25.6 247.4-25.6 252.35-25.6 255.25-22.6 258.15-19.6 258.15-13.85L258.15-13.85Q258.15-12.45 257.8-10.25L257.8-10.25 241.9-10.25Q242.55-7.5 244.62-6.05 246.7-4.6 249.8-4.6L249.8-4.6Q253.8-4.6 256.55-6.6L256.55-6.6ZM247.55-20.9L247.55-20.9Q245.4-20.9 243.82-19.33 242.25-17.75 241.8-14.75L241.8-14.75 252.45-14.75 252.45-15.5Q252.35-17.95 251.12-19.43 249.9-20.9 247.55-20.9ZM329.37-16.7L329.37 0 323.32 0 323.32-15.55Q323.32-20.65 319.42-20.65L319.42-20.65Q317.47-20.65 315.95-18.95 314.42-17.25 314.42-13.6L314.42-13.6 314.42 0 308.37 0 308.37-15.55Q308.37-20.65 304.47-20.65L304.47-20.65Q302.52-20.65 300.97-18.95 299.42-17.25 299.42-13.6L299.42-13.6 299.42 0 293.42 0 293.42-25.35 299.42-25.35 299.42-21.35Q301.57-25.65 306.57-25.65L306.57-25.65Q312.12-25.65 313.77-20.85L313.77-20.85Q314.77-23.15 316.77-24.4 318.77-25.65 321.32-25.65L321.32-25.65Q325.17-25.65 327.27-23.33 329.37-21 329.37-16.7L329.37-16.7ZM352.96-4.25L352.96-4.25Q354.96-4.25 356.08-5.43 357.21-6.6 357.21-8.5L357.21-8.5 357.21-10.9 354.11-10.9Q351.76-10.9 350.51-9.93 349.26-8.95 349.26-7.45L349.26-7.45Q349.26-4.25 352.96-4.25ZM357.46 0L357.46-3.05Q355.71 0.2 350.86 0.2L350.86 0.2Q347.26 0.2 345.13-1.9 343.01-4 343.01-7.2L343.01-7.2Q343.01-10.8 345.71-12.85 348.41-14.9 353.51-14.9L353.51-14.9 357.21-14.9 357.21-16.45Q357.21-18.55 356.11-19.65 355.01-20.75 352.36-20.75L352.36-20.75Q348.31-20.75 344.91-18.5L344.91-18.5 344.91-24.05Q347.76-25.8 353.11-25.8L353.11-25.8Q363.41-25.8 363.41-16.2L363.41-16.2 363.41 0 357.46 0ZM383.09-12.55L383.09-12.55Q383.09-9.1 384.84-6.95 386.59-4.8 389.19-4.8L389.19-4.8Q391.89-4.8 393.69-6.88 395.49-8.95 395.49-12.9L395.49-12.9Q395.49-16.75 393.59-18.68 391.69-20.6 389.24-20.6L389.24-20.6Q386.64-20.6 384.87-18.48 383.09-16.35 383.09-12.55ZM401.49-35.35L401.49 0 395.49 0 395.49-3.95Q392.89 0.35 387.79 0.35L387.79 0.35Q382.79 0.35 379.87-3.45 376.94-7.25 376.94-12.65L376.94-12.65Q376.94-18.65 380.02-22.18 383.09-25.7 387.89-25.7L387.89-25.7Q392.84-25.7 395.49-21.45L395.49-21.45 395.49-35.35 401.49-35.35ZM436.03-6.6L436.03-1.4Q433.38 0.25 428.38 0.25L428.38 0.25Q422.33 0.25 418.83-3.35 415.33-6.95 415.33-12.65L415.33-12.65Q415.33-18.7 418.63-22.15 421.93-25.6 426.88-25.6 431.83-25.6 434.73-22.6 437.63-19.6 437.63-13.85L437.63-13.85Q437.63-12.45 437.28-10.25L437.28-10.25 421.38-10.25Q422.03-7.5 424.1-6.05 426.18-4.6 429.28-4.6L429.28-4.6Q433.28-4.6 436.03-6.6L436.03-6.6ZM427.03-20.9L427.03-20.9Q424.88-20.9 423.3-19.33 421.73-17.75 421.28-14.75L421.28-14.75 431.93-14.75 431.93-15.5Q431.83-17.95 430.6-19.43 429.38-20.9 427.03-20.9ZM492.25-6.6L492.25-1.4Q489.6 0.25 484.6 0.25L484.6 0.25Q478.55 0.25 475.05-3.35 471.55-6.95 471.55-12.65L471.55-12.65Q471.55-18.7 474.85-22.15 478.15-25.6 483.1-25.6 488.05-25.6 490.95-22.6 493.85-19.6 493.85-13.85L493.85-13.85Q493.85-12.45 493.5-10.25L493.5-10.25 477.6-10.25Q478.25-7.5 480.32-6.05 482.4-4.6 485.5-4.6L485.5-4.6Q489.5-4.6 492.25-6.6L492.25-6.6ZM483.25-20.9L483.25-20.9Q481.1-20.9 479.52-19.33 477.95-17.75 477.5-14.75L477.5-14.75 488.15-14.75 488.15-15.5Q488.05-17.95 486.82-19.43 485.6-20.9 483.25-20.9ZM516.74-4.25L516.74-4.25Q518.74-4.25 519.86-5.43 520.99-6.6 520.99-8.5L520.99-8.5 520.99-10.9 517.89-10.9Q515.54-10.9 514.29-9.93 513.04-8.95 513.04-7.45L513.04-7.45Q513.04-4.25 516.74-4.25ZM521.24 0L521.24-3.05Q519.49 0.2 514.64 0.2L514.64 0.2Q511.04 0.2 508.91-1.9 506.79-4 506.79-7.2L506.79-7.2Q506.79-10.8 509.49-12.85 512.19-14.9 517.29-14.9L517.29-14.9 520.99-14.9 520.99-16.45Q520.99-18.55 519.89-19.65 518.79-20.75 516.14-20.75L516.14-20.75Q512.09-20.75 508.69-18.5L508.69-18.5 508.69-24.05Q511.54-25.8 516.89-25.8L516.89-25.8Q527.19-25.8 527.19-16.2L527.19-16.2 527.19 0 521.24 0ZM558.62-7.3L558.62-7.3Q558.62-3.75 556.07-1.75 553.52 0.25 549.27 0.25L549.27 0.25Q544.57 0.25 541.67-1.3L541.67-1.3 541.67-6.8Q545.02-4.55 548.92-4.55L548.92-4.55Q550.57-4.55 551.5-5.18 552.42-5.8 552.42-6.9L552.42-6.9Q552.42-7.55 552.12-8.08 551.82-8.6 550.97-9.1 550.12-9.6 549.65-9.83 549.17-10.05 547.77-10.65L547.77-10.65Q547.62-10.7 547.55-10.75 547.47-10.8 547.32-10.85 547.17-10.9 547.07-10.95L547.07-10.95Q541.52-13.45 541.52-18.15L541.52-18.15Q541.52-21.65 544.17-23.65 546.82-25.65 550.82-25.65L550.82-25.65Q554.67-25.65 557.22-24.55L557.22-24.55 557.22-19.25Q554.72-20.75 550.97-20.75L550.97-20.75Q549.42-20.75 548.55-20.08 547.67-19.4 547.67-18.35L547.67-18.35Q547.67-17.95 547.8-17.6 547.92-17.25 548.25-16.93 548.57-16.6 548.87-16.35 549.17-16.1 549.72-15.83 550.27-15.55 550.67-15.35 551.07-15.15 551.77-14.85 552.47-14.55 552.87-14.35L552.87-14.35Q555.52-13.05 557.07-11.45 558.62-9.85 558.62-7.3ZM594.26-25.35L585.11-0.7Q581.31 9.45 573.51 9.45L573.51 9.45Q572.06 9.45 571.01 9.2L571.01 9.2 571.01 4.25Q571.81 4.45 572.71 4.45L572.71 4.45Q577.26 4.45 579.16-0.5L579.16-0.5 569.16-25.35 575.81-25.35 578.76-17.25Q580.11-13.65 580.93-11.2 581.76-8.75 581.96-8.1L581.96-8.1 582.11-7.4Q582.61-9.15 585.31-17.25L585.31-17.25 587.96-25.35 594.26-25.35Z" opacity="1" transform="matrix(1,0,0,1,0,0)" fill="#000000" class="slogan-text-1" data-fill-palette-color="secondary" id="text-1"></path></svg></g></svg></g></svg></g></svg></g><g transform="matrix(1,0,0,1,42.299284881650905,0)"><svg viewBox="0 0 107.40143023669816 87.05411987637052" height="87.05411987637052" width="107.40143023669816"><g><svg xmlns:x="http://ns.adobe.com/Extensibility/1.0/" xmlns:i="http://ns.adobe.com/AdobeIllustrator/10.0/" xmlns:graph="http://ns.adobe.com/Graphs/1.0/" xmlns="http://www.w3.org/2000/svg" xmlns:xlink="http://www.w3.org/1999/xlink" version="1.1" x="0" y="0" viewBox="3.5 12.300000190734863 92.89999389648438 75.29999542236328" enable-background="new 0 0 100 100" xml:space="preserve" height="87.05411987637052" width="107.40143023669816" class="icon-icon-0" data-fill-palette-color="accent" id="icon-0"><path d="M10.7 87.6h78.5c4 0 7.2-3.2 7.2-7.2V19.5c0-4-3.2-7.2-7.2-7.2H10.7c-4 0-7.2 3.2-7.2 7.2v60.9C3.6 84.4 6.8 87.6 10.7 87.6zM89.3 82.6H10.7c-1.2 0-2.2-1-2.2-2.2V34.9h82.9v45.5C91.4 81.7 90.5 82.6 89.3 82.6zM10.7 17.4h78.5c1.2 0 2.2 1 2.2 2.2v10.4H8.6V19.5C8.6 18.3 9.5 17.4 10.7 17.4zM21.9 23.6c0-1.7 1.4-3 3-3s3 1.4 3 3c0 1.7-1.4 3-3 3S21.9 25.3 21.9 23.6zM31.9 23.6c0-1.7 1.4-3 3-3s3 1.4 3 3c0 1.7-1.4 3-3 3S31.9 25.3 31.9 23.6zM11.9 23.6c0-1.7 1.4-3 3-3 1.7 0 3 1.4 3 3 0 1.7-1.4 3-3 3C13.3 26.7 11.9 25.3 11.9 23.6zM85.4 74.7c0 1.4-1.1 2.5-2.5 2.5H17.1c-1.4 0-2.5-1.1-2.5-2.5s1.1-2.5 2.5-2.5h65.8C84.3 72.2 85.4 73.4 85.4 74.7zM85.4 64.2c0 1.4-1.1 2.5-2.5 2.5H34.4c-1.4 0-2.5-1.1-2.5-2.5s1.1-2.5 2.5-2.5h48.5C84.3 61.7 85.4 62.8 85.4 64.2zM85.4 53.7c0 1.4-1.1 2.5-2.5 2.5H17.1c-1.4 0-2.5-1.1-2.5-2.5s1.1-2.5 2.5-2.5h65.8C84.3 51.2 85.4 52.3 85.4 53.7zM85.4 43.1c0 1.4-1.1 2.5-2.5 2.5H50c-1.4 0-2.5-1.1-2.5-2.5s1.1-2.5 2.5-2.5h32.9C84.3 40.6 85.4 41.7 85.4 43.1z" fill="#000000" data-fill-palette-color="accent"></path></svg></g></svg></g><g></g></svg></g></svg></g></svg></g></svg></g><defs></defs></svg><rect width="320" height="360" fill="none" stroke="none" visibility="hidden"></rect></g></svg></g></svg>